HIERARCHY
ROOT Hips
{
	OFFSET 0.000000 0.000000 0.000000
	CHANNELS 6 Xposition Yposition Zposition Zrotation Yrotation Xrotation 
	JOINT LHipJoint
	{
		OFFSET 0.000000 0.000000 0.000000
		CHANNELS 3 Zrotation Yrotation Xrotation
		JOINT LeftUpLeg
		{
			OFFSET 1.363060 -1.794630 0.839290
			CHANNELS 3 Zrotation Yrotation Xrotation
			JOINT LeftLeg
			{
				OFFSET 2.448110 -6.726130 0.000000
				CHANNELS 3 Zrotation Yrotation Xrotation
				JOINT LeftFoot
				{
					OFFSET 2.562200 -7.039590 0.000000
					CHANNELS 3 Zrotation Yrotation Xrotation
					JOINT LeftToeBase
					{
						OFFSET 0.157640 -0.433110 2.322550
						CHANNELS 3 Zrotation Yrotation Xrotation
						End Site
						{
							OFFSET 0.000000 0.000000 0.000000
						}
					}
				}
			}
		}
	}
	JOINT RHipJoint
	{
		OFFSET 0.000000 0.000000 0.000000
		CHANNELS 3 Zrotation Yrotation Xrotation
		JOINT RightUpLeg
		{
			OFFSET -1.305520 -1.794630 0.839290
			CHANNELS 3 Zrotation Yrotation Xrotation
			JOINT RightLeg
			{
				OFFSET -2.542530 -6.985550 0.000000
				CHANNELS 3 Zrotation Yrotation Xrotation
				JOINT RightFoot
				{
					OFFSET -2.568260 -7.056230 0.000000
					CHANNELS 3 Zrotation Yrotation Xrotation
					JOINT RightToeBase
					{
						OFFSET -0.164730 -0.452590 2.363150
						CHANNELS 3 Zrotation Yrotation Xrotation
						End Site
						{
							OFFSET 0.000000 0.000000 0.000000
						}
					}
				}
			}
		}
	}
	JOINT LowerBack
	{
		OFFSET 0.000000 0.000000 0.000000
		CHANNELS 3 Zrotation Yrotation Xrotation
		JOINT Spine
		{
			OFFSET 0.028270 2.035590 -0.193380
			CHANNELS 3 Zrotation Yrotation Xrotation
			JOINT Spine1
			{
				OFFSET 0.056720 2.048850 -0.042750
				CHANNELS 3 Zrotation Yrotation Xrotation
				JOINT Neck
				{
					OFFSET 0.000000 0.000000 0.000000
					CHANNELS 3 Zrotation Yrotation Xrotation
					JOINT Neck1
					{
						OFFSET -0.054170 1.746240 0.172020
						CHANNELS 3 Zrotation Yrotation Xrotation
						JOINT Head
						{
							OFFSET 0.104070 1.761360 -0.123970
							CHANNELS 3 Zrotation Yrotation Xrotation
							End Site
							{
								OFFSET 0.000000 0.000000 0.000000
							}
						}
					}
				}
				JOINT LeftShoulder
				{
					OFFSET 0.000000 0.000000 0.000000
					CHANNELS 3 Zrotation Yrotation Xrotation
					JOINT LeftArm
					{
						OFFSET 3.362410 1.200890 -0.311210
						CHANNELS 3 Zrotation Yrotation Xrotation
						JOINT LeftForeArm
						{
							OFFSET 4.983000 -0.000000 -0.000000
							CHANNELS 3 Zrotation Yrotation Xrotation
							JOINT LeftHand
							{
								OFFSET 3.483560 -0.000000 -0.000000
								CHANNELS 3 Zrotation Yrotation Xrotation
								JOINT LeftFingerBase
								{
									OFFSET 0.000000 0.000000 0.000000
									CHANNELS 3 Zrotation Yrotation Xrotation
									JOINT LeftHandIndex1
									{
										OFFSET 0.715260 -0.000000 -0.000000
										CHANNELS 3 Zrotation Yrotation Xrotation
										End Site
										{
											OFFSET 0.000000 0.000000 0.000000
										}
									}
								}
								JOINT LThumb
								{
									OFFSET 0.000000 0.000000 0.000000
									CHANNELS 3 Zrotation Yrotation Xrotation
									End Site
									{
										OFFSET 0.000000 0.000000 0.000000
									}
								}
							}
						}
					}
				}
				JOINT RightShoulder
				{
					OFFSET 0.000000 0.000000 0.000000
					CHANNELS 3 Zrotation Yrotation Xrotation
					JOINT RightArm
					{
						OFFSET -3.136600 1.374050 -0.404650
						CHANNELS 3 Zrotation Yrotation Xrotation
						JOINT RightForeArm
						{
							OFFSET -5.241900 -0.000000 -0.000000
							CHANNELS 3 Zrotation Yrotation Xrotation
							JOINT RightHand
							{
								OFFSET -3.444170 -0.000000 -0.000000
								CHANNELS 3 Zrotation Yrotation Xrotation
								JOINT RightFingerBase
								{
									OFFSET 0.000000 0.000000 0.000000
									CHANNELS 3 Zrotation Yrotation Xrotation
									JOINT RightHandIndex1
									{
										OFFSET -0.622530 -0.000000 -0.000000
										CHANNELS 3 Zrotation Yrotation Xrotation
										End Site
										{
											OFFSET 0.000000 0.000000 0.000000
										}
									}
								}
								JOINT RThumb
								{
									OFFSET 0.000000 0.000000 0.000000
									CHANNELS 3 Zrotation Yrotation Xrotation
									End Site
									{
										OFFSET 0.000000 0.000000 0.000000
									}
								}
							}
						}
					}
				}
			}
		}
	}
}
MOTION
Frames: 7
Frame Time: 0.008333
2.625824 17.600286 -1.227706 179.180953 -4.233136 176.890509 -2.278254 5.789186 6.679179 0.083511 0.578753 -10.203206 2.646491 9.717358 30.772558 -2.230022 9.696042 2.648880 1.526600 -7.801300 -22.112000 -3.054245 -6.689596 4.270592 14.941946 25.244874 -10.088273 -3.948323 -9.601332 34.692774 1.507976 -7.008495 -6.527410 -0.076500 1.784000 -4.909200 -1.891915 -0.873913 -0.862086 -13.974996 -1.824873 15.936394 1.691439 -1.223262 -5.959061 -8.584867 -4.913372 -12.041880 -0.878582 -2.514935 33.862661 1.186200 -1.350700 9.793500 -3.073231 -4.410704 0.221442 -80.675598 -37.090362 64.453483 40.499627 -46.339772 -20.256381 -0.297760 -0.880537 14.317457 26.021035 18.583193 9.332000 -7.125000 0.000000 0.000000 -2.288200 51.594700 -0.371800 4.464327 4.898475 -0.691899 16.988906 39.140671 -45.896903 -32.199326 38.350060 -14.000403 0.727016 1.543297 -15.280807 -29.592854 -4.922081 3.754900 7.125000 0.000000 0.000000 -3.386300 -37.326800 -0.640300 
2.670634 17.614931 -1.227900 179.300111 -4.742386 176.934307 -2.185247 5.718663 6.546752 0.575257 0.709026 -11.343535 2.937286 10.156961 32.002900 -2.011891 9.201329 4.670526 1.553400 -7.866300 -22.308600 -3.083259 -6.657785 4.278536 15.275850 24.928493 -9.908561 -3.888851 -9.488553 34.384665 1.623531 -7.366863 -6.494284 -0.079400 1.818100 -5.003300 -1.470994 -0.728079 -0.837414 -14.148634 -1.599830 15.830950 1.429536 -1.114944 -6.035331 -8.072068 -4.808554 -12.532225 -1.730568 -1.872691 35.052019 0.972100 -1.079300 10.181600 -3.072629 -4.363954 0.238168 -80.938273 -36.608531 64.463200 40.039061 -46.085654 -19.902011 -0.302381 -0.874188 13.974223 26.147785 18.028074 9.133500 -7.125000 0.000000 0.000000 -2.021600 51.011100 -0.299500 4.367264 4.917816 -0.659850 16.533499 39.768004 -46.373050 -33.342304 39.274491 -14.878971 0.684460 1.558011 -15.735094 -29.885091 -4.709388 3.683800 7.125000 0.000000 0.000000 -3.613900 -37.128100 -0.701100 
2.715831 17.631226 -1.230713 179.426204 -5.285596 176.942040 -2.085955 5.642271 6.418518 1.088240 0.763486 -12.495809 3.238729 10.593604 33.240524 -1.801206 8.805532 6.736677 1.488200 -7.706800 -21.827100 -3.114691 -6.637009 4.305614 15.632079 24.584711 -9.695711 -3.830233 -9.374073 34.079452 1.733401 -7.716263 -6.542350 -0.085000 1.880200 -5.174600 -1.059838 -0.589370 -0.920223 -14.325856 -1.384938 15.867421 1.155910 -1.028720 -5.900202 -7.815332 -4.509245 -11.653770 -2.094268 -1.392518 34.403789 0.918700 -0.843100 9.857500 -3.038769 -4.359064 0.218150 -80.841897 -36.331457 64.388024 40.054156 -46.089127 -19.912319 -0.295071 -0.870037 13.545100 25.995164 17.572233 8.863700 -7.125000 0.000000 0.000000 -2.073600 50.481700 -0.280200 4.240721 4.963096 -0.684342 15.819785 40.505430 -47.057948 -34.428801 40.095166 -15.720205 0.655778 1.537753 -15.698260 -30.290524 -4.131658 3.389400 7.125000 0.000000 0.000000 -3.926800 -36.479800 -0.824300 
2.756082 17.647132 -1.231585 179.487725 -5.824233 176.939063 -1.994034 5.564939 6.284309 1.505869 0.829848 -13.635963 3.536282 11.016277 34.455387 -1.579769 8.428297 8.739082 1.445000 -7.599300 -21.503400 -3.142099 -6.606948 4.323211 15.883220 24.195248 -9.485234 -3.768521 -9.261803 33.768834 1.805916 -7.940972 -6.567177 -0.072600 1.738000 -4.782000 -0.655956 -0.466898 -0.870550 -14.505923 -1.192116 15.824649 0.900231 -0.943585 -5.918540 -7.244146 -4.286016 -11.621611 -3.039541 -0.653913 34.820905 0.687100 -0.529200 9.955900 -3.021894 -4.331286 0.220616 -80.771820 -36.028904 64.025051 39.883595 -45.992654 -19.774484 -0.291684 -0.876653 13.401725 25.678096 17.760740 8.826700 -7.125000 0.000000 0.000000 -2.434300 50.634900 -0.338200 4.099154 5.013648 -0.673805 14.886820 41.389091 -47.770242 -35.510882 40.910226 -16.579944 0.650156 1.537076 -15.671883 -31.208307 -3.942680 3.403300 7.125000 0.000000 0.000000 -4.695700 -36.329800 -1.003800 
2.793909 17.663232 -1.229743 179.588652 -6.247712 176.913128 -1.904687 5.500185 6.161662 1.933436 0.917550 -14.679273 3.815501 11.408509 35.577512 -1.367774 8.102841 10.519149 1.367000 -7.399800 -20.905300 -3.177074 -6.577693 4.328511 16.195631 23.932712 -9.241261 -3.709370 -9.146098 33.462414 1.872237 -8.137608 -6.558612 -0.049600 1.436600 -3.951100 -0.141253 -0.305030 -0.761743 -14.721247 -0.945451 15.712029 0.563189 -0.828442 -5.968445 -7.120612 -4.066286 -11.320214 -3.344493 -0.096244 35.069813 0.672000 -0.249000 9.978500 -2.986553 -4.310183 0.217861 -80.769365 -35.603139 63.910263 39.968713 -46.051289 -19.844686 -0.278999 -0.889138 12.855927 25.229327 17.859086 8.697000 -7.125000 0.000000 0.000000 -2.912300 50.670000 -0.407200 3.983430 5.037936 -0.667440 14.040907 42.275517 -48.307957 -36.728808 41.784840 -17.559096 0.615170 1.549295 -15.527227 -31.611672 -3.963096 3.486900 7.125000 0.000000 0.000000 -5.010200 -36.415700 -1.060900 
2.831444 17.681079 -1.229452 179.431186 -6.619287 176.784277 -1.864427 5.436853 6.052961 2.109260 0.963127 -15.510403 4.089049 11.756300 36.622583 -1.225623 8.084672 12.296474 1.215700 -6.994200 -19.698100 -3.208347 -6.561682 4.333991 16.252470 23.683693 -8.912025 -3.655827 -9.054554 33.188675 1.957303 -8.398846 -6.561937 -0.043900 1.352600 -3.719500 0.104523 -0.090923 -0.568378 -15.047992 -0.649017 15.675814 0.302209 -0.698154 -5.972644 -7.464648 -0.591434 -10.968521 -2.090722 -0.790580 35.366378 0.670600 -2.325300 9.951000 -2.882802 -4.325657 0.196117 -80.824558 -35.272107 63.582853 39.928242 -46.035680 -19.814824 -0.275694 -0.889014 12.372490 25.188345 17.579377 8.559700 -7.125000 0.000000 0.000000 -2.884300 50.360000 -0.381300 3.905628 5.022641 -0.698294 13.146226 43.191845 -48.779770 -38.007834 42.654757 -18.611033 0.557057 1.562749 -15.360556 -31.490170 -3.885873 3.438600 7.125000 0.000000 0.000000 -4.859600 -36.359300 -1.035500 
2.865488 17.705423 -1.230034 179.050670 -7.023809 176.674797 -1.870693 5.365309 5.940796 2.035208 0.865176 -16.247153 4.352286 12.068107 37.594403 -1.129243 8.299790 14.058831 1.070300 -6.576700 -18.467300 -3.231077 -6.536533 4.331053 15.998781 23.367679 -8.668342 -3.609679 -8.992828 32.968199 2.005335 -8.547946 -6.578934 -0.039400 1.281900 -3.524700 0.185136 0.096227 -0.241291 -15.504468 -0.402762 15.558461 0.183947 -0.598538 -6.086754 -7.111365 -0.284001 -10.856548 -2.537456 -0.325847 35.877979 0.553000 -2.191900 10.076700 -2.824206 -4.294027 0.194809 -80.846148 -34.898528 63.108379 39.957297 -46.059929 -19.842180 -0.274522 -0.886290 11.929147 25.340388 17.216468 8.458500 -7.125000 0.000000 0.000000 -2.646500 49.991300 -0.325800 3.793174 5.039137 -0.669564 12.242256 44.108711 -49.018861 -39.409373 43.573644 -19.801838 0.489409 1.564482 -15.441784 -31.172243 -3.197602 2.976400 7.125000 0.000000 0.000000 -4.524600 -35.560300 -1.052100 
